<?xml version="1.0" encoding="UTF-8"?>
<svg version="1.1" xmlns="http://www.w3.org/2000/svg" width="300" height="150">
<path d="M0 0 C0.02918874 3.70831663 0.04686218 7.41660342 0.0625 11.125 C0.07087891 12.17171875 0.07925781 13.2184375 0.08789062 14.296875 C0.10375207 19.3090905 0.08177213 24.07665912 -1 29 C-4.01031744 29.93423645 -4.86650268 30.04449911 -8 29 C-9.0625 25.98046875 -9.0625 25.98046875 -10 22.1875 C-11.45638254 16.05694003 -11.45638254 16.05694003 -15 11 C-18.63202989 9.78932337 -21.9511935 9.87544424 -25.73046875 9.90234375 C-26.72850525 9.90385437 -26.72850525 9.90385437 -27.7467041 9.90539551 C-30.22698699 9.91061894 -32.70724526 9.92458022 -35.1875 9.9375 C-43.5096875 9.9684375 -43.5096875 9.9684375 -52 10 C-52 21.88 -52 33.76 -52 46 C-40.95998325 46.42937576 -40.95998325 46.42937576 -30 45 C-27.21704412 41.10386177 -26.1944505 36.59404038 -25 32 C-22.69 32 -20.38 32 -18 32 C-17.12572777 34.90128859 -16.97957862 37.01503101 -17.4375 40 C-18.16311295 45.6746654 -18.07239195 51.28827543 -18 57 C-17.97463162 59.0624492 -17.95355092 61.12495724 -17.9375 63.1875 C-17.92589844 64.08855469 -17.91429688 64.98960938 -17.90234375 65.91796875 C-18 68 -18 68 -19 69 C-21.33944736 68.71269945 -23.6739143 68.38063221 -26 68 C-26.29003906 66.95199219 -26.29003906 66.95199219 -26.5859375 65.8828125 C-26.84632812 64.97273438 -27.10671875 64.06265625 -27.375 63.125 C-27.63023438 62.22007813 -27.88546875 61.31515625 -28.1484375 60.3828125 C-28.8604315 57.85430274 -28.8604315 57.85430274 -31 56 C-33.32134177 55.5368669 -33.32134177 55.5368669 -36.0078125 55.3671875 C-36.99394531 55.28339844 -37.98007812 55.19960937 -38.99609375 55.11328125 C-40.02863281 55.03464844 -41.06117187 54.95601562 -42.125 54.875 C-43.16527344 54.78863281 -44.20554688 54.70226563 -45.27734375 54.61328125 C-47.85101589 54.40077621 -50.42508017 54.19670844 -53 54 C-52.88205478 59.10881026 -52.75782953 64.21741364 -52.62768555 69.32592773 C-52.58427427 71.06514288 -52.54260388 72.80440235 -52.50268555 74.54370117 C-52.44513232 77.03838488 -52.3813958 79.5328441 -52.31640625 82.02734375 C-52.29969376 82.80963852 -52.28298126 83.59193329 -52.26576233 84.39793396 C-52.49351269 87.99871781 -52.49351269 87.99871781 -51 91 C-48.31949301 91.11349998 -45.66575057 91.1641844 -42.984375 91.16796875 C-42.17639465 91.17129715 -41.36841431 91.17462555 -40.53594971 91.17805481 C-38.82101004 91.18312915 -37.10606045 91.18546298 -35.39111328 91.18530273 C-32.77489724 91.18747929 -30.15910953 91.20560175 -27.54296875 91.22460938 C-25.87760561 91.22754523 -24.21224046 91.22952874 -22.546875 91.23046875 C-21.76648865 91.23765427 -20.98610229 91.24483978 -20.18206787 91.25224304 C-16.03850101 91.2349494 -12.66720145 91.02158332 -9 89 C-7.81606215 86.77315909 -7.81606215 86.77315909 -7 84 C-5.80935075 81.55135709 -4.6054058 79.11580089 -3.375 76.6875 C-3.05015625 76.04232422 -2.7253125 75.39714844 -2.390625 74.73242188 C-1.59558044 73.15402459 -0.79804366 71.57688306 0 70 C1.65 70.33 3.3 70.66 5 71 C3.99728261 99.00271739 3.99728261 99.00271739 1 102 C-1.64200061 102.10043271 -4.2578859 102.1361685 -6.90039062 102.12939453 C-8.14178047 102.13202301 -8.14178047 102.13202301 -9.4082489 102.13470459 C-12.15760362 102.13912393 -14.90689457 102.13618483 -17.65625 102.1328125 C-19.55814629 102.13348552 -21.46004249 102.13445552 -23.36193848 102.13571167 C-27.35344255 102.13718875 -31.34492429 102.13503375 -35.33642578 102.13037109 C-40.46490507 102.1246738 -45.59333202 102.12795275 -50.72180939 102.13394356 C-54.65074054 102.13754889 -58.57965918 102.13641072 -62.5085907 102.13381577 C-64.40012112 102.13314642 -66.29165265 102.13397519 -68.18318176 102.13629532 C-70.82202177 102.13882138 -73.46077581 102.13498191 -76.09960938 102.12939453 C-77.28407906 102.13243088 -77.28407906 102.13243088 -78.49247742 102.13552856 C-83.88573749 102.11426251 -83.88573749 102.11426251 -85 101 C-85.04080783 99.00041636 -85.04254356 96.99954746 -85 95 C-83.96875 94.71125 -82.9375 94.4225 -81.875 94.125 C-78.54992003 93.17691202 -75.27248547 92.11743406 -72 91 C-70.82460255 83.57176822 -70.8555994 76.22761103 -70.8671875 68.71875 C-70.86651244 67.3368732 -70.86554073 65.95499652 -70.86428833 64.57312012 C-70.86282087 61.68854635 -70.86493515 58.80400372 -70.86962891 55.91943359 C-70.87532561 52.24129507 -70.87204149 48.56322954 -70.86605644 44.88509369 C-70.86242504 42.03504904 -70.86360122 39.18502139 -70.86618423 36.3349762 C-70.86716589 34.32548983 -70.86415462 32.31600277 -70.86105347 30.30651855 C-70.87681014 21.10806925 -70.87681014 21.10806925 -72 12 C-73.5413214 10.43409733 -73.5413214 10.43409733 -76 10 C-76.67417969 9.81953125 -77.34835938 9.6390625 -78.04296875 9.453125 C-80.02016169 8.93520543 -82.00956466 8.46443491 -84 8 C-84 5.69 -84 3.38 -84 1 C-73.63838184 0.86932163 -63.27676032 0.73891274 -52.91513443 0.60884857 C-48.10390304 0.54844717 -43.29267286 0.48795269 -38.48144531 0.42724609 C-33.83898945 0.36867242 -29.19653058 0.31034246 -24.55406952 0.25218201 C-22.78224325 0.22994174 -21.01041809 0.20761343 -19.23859406 0.18519592 C-16.75834941 0.15383031 -14.27810105 0.1227768 -11.79785156 0.09179688 C-11.06417358 0.08244614 -10.33049561 0.0730954 -9.57458496 0.0634613 C-6.38260008 0.02388478 -3.19231846 0 0 0 Z " fill="#F1641E" transform="translate(95,9)"/>
<path d="M0 0 C11.22 0 22.44 0 34 0 C34.495 2.475 34.495 2.475 35 5 C31.04 6.98 31.04 6.98 27 9 C27.57877971 14.05386378 28.70585547 18.60216724 30.43359375 23.39453125 C30.67159195 24.06796066 30.90959015 24.74139008 31.15480042 25.43522644 C31.65508579 26.84557394 32.15862374 28.25477158 32.6652832 29.6628418 C33.44050055 31.82085277 34.20232676 33.98327136 34.96289062 36.14648438 C35.45233719 37.52111409 35.9425446 38.8954732 36.43359375 40.26953125 C36.6607457 40.91533646 36.88789764 41.56114166 37.12193298 42.22651672 C38.13648397 45.023841 38.86807457 46.86807457 41 49 C44.91813151 40.92555268 48.59326831 32.79335354 51.875 24.4375 C52.172854 23.68871582 52.47070801 22.93993164 52.77758789 22.16845703 C54.32870407 18.15512996 55.70030993 14.33247602 56 10 C53.53721199 7.53721199 51.29323018 7.00228745 48 6 C48 4.02 48 2.04 48 0 C57.24 0 66.48 0 76 0 C76.495 2.475 76.495 2.475 77 5 C75.1938461 7.34131061 73.69184176 8.69715732 70.97875977 9.88476562 C68.59568488 11.2278731 68.10088554 12.17238085 67.02734375 14.65625 C66.6907373 15.4184082 66.35413086 16.18056641 66.00732422 16.96582031 C65.47776123 18.22023926 65.47776123 18.22023926 64.9375 19.5 C64.55609863 20.37495117 64.17469727 21.24990234 63.78173828 22.15136719 C62.50516331 25.09431101 61.25074243 28.0459899 60 31 C59.54608887 32.06669922 59.09217773 33.13339844 58.62451172 34.23242188 C54.72830117 43.39330763 50.84160557 52.55856131 47.02734375 61.75390625 C41.2979224 75.4226231 33.95774656 91.30237672 20 98.28125 C12.42023265 101.00522889 5.80998333 101.60904436 -1.84375 99.01953125 C-4.24729674 97.88307165 -6.09142854 96.86499677 -8 95 C-8.2421875 92.87109375 -8.2421875 92.87109375 -7.875 90.4375 C-7.74867188 89.5609375 -7.62234375 88.684375 -7.4921875 87.78125 C-7.24855469 86.40453125 -7.24855469 86.40453125 -7 85 C-6.83757812 84.0615625 -6.67515625 83.123125 -6.5078125 82.15625 C-5.2104682 75.2104682 -5.2104682 75.2104682 -4 74 C-2.00041636 73.95919217 0.00045254 73.95745644 2 74 C4.20399168 78.55491614 4.58846263 83.02906176 5 88 C13.86200175 88.35448007 19.55068504 85.92284027 26 80 C28.38209288 77.48856271 29.90067478 75.29052621 31 72 C29.94694576 62.69324646 24.36919607 52.95180514 20.75 44.375 C20.09982879 42.82179519 19.4500867 41.26841068 18.80078125 39.71484375 C17.51606458 36.64439837 16.21871398 33.57974496 14.91210938 30.51855469 C13.6258969 27.50190552 12.38236448 24.47220637 11.16601562 21.42675781 C10.57442635 19.98494084 9.98263821 18.54320545 9.390625 17.1015625 C9.13698181 16.44288177 8.88333862 15.78420105 8.62200928 15.1055603 C6.66763944 10.42650579 4.29542885 8.54852288 0 6 C-0.9375 3.875 -0.9375 3.875 -1 2 C-0.67 1.34 -0.34 0.68 0 0 Z " fill="#F1641E" transform="translate(214,43)"/>
<path d="M0 0 C0.85142578 -0.01611328 1.70285156 -0.03222656 2.58007812 -0.04882812 C8.7012513 -0.0534901 13.47199007 1.12222875 19.1875 3.3125 C18.8575 9.2525 18.5275 15.1925 18.1875 21.3125 C13.1875 22.3125 13.1875 22.3125 10.1875 20.3125 C9.08984375 17.96484375 9.08984375 17.96484375 8.125 15.25 C7.04044935 11.5257816 7.04044935 11.5257816 4.1875 9.3125 C2.23300156 9.1643456 0.2723947 9.09125151 -1.6875 9.0625 C-2.73679688 9.03671875 -3.78609375 9.0109375 -4.8671875 8.984375 C-8.17789323 9.35320694 -9.51899556 9.92162981 -11.8125 12.3125 C-12.33523821 15.55347691 -12.5827001 17.24975115 -11.8125 20.3125 C-6.964195 25.79873987 0.07586888 28.35043499 6.5859375 31.45703125 C12.80275516 34.6290935 18.01057371 38.95864741 21.1875 45.3125 C21.67205385 51.0635982 22.04023008 56.43649383 19.625 61.75 C13.36219395 68.33397559 8.87141565 71.86223096 -0.609375 72.61328125 C-9.81538454 72.64057179 -18.87956265 72.6011249 -26.8125 67.3125 C-27.16894531 65.35717773 -27.16894531 65.35717773 -27.140625 62.99609375 C-27.13289062 61.72668945 -27.13289062 61.72668945 -27.125 60.43164062 C-27.104375 59.54669922 -27.08375 58.66175781 -27.0625 57.75 C-27.05734375 56.86119141 -27.0521875 55.97238281 -27.046875 55.05664062 C-26.96644546 48.46644546 -26.96644546 48.46644546 -25.8125 47.3125 C-24.14632885 47.27186168 -22.47861905 47.269779 -20.8125 47.3125 C-20.235 48.488125 -19.6575 49.66375 -19.0625 50.875 C-18.69125 51.60074219 -18.32 52.32648438 -17.9375 53.07421875 C-17.2333151 54.47525329 -16.5608894 55.89322626 -15.9375 57.33203125 C-14.72914477 59.89439167 -13.6000384 61.90925277 -11.02734375 63.2265625 C-5.6495758 64.78083069 -0.47429123 64.71344275 4.5625 62.0625 C6.73059305 59.72763057 7.11486805 58.50830589 7.1875 55.3125 C6.24081854 51.30730921 5.43137747 49.28533802 2.1796875 46.7421875 C-1.40566295 44.54025202 -5.07348554 42.65481 -8.890625 40.88671875 C-15.65603283 37.73349475 -20.6443278 34.63894907 -24.8125 28.3125 C-26.56248045 23.06255866 -26.94966424 17.16248837 -24.87109375 11.953125 C-18.8814148 1.96406795 -11.05004586 -0.04126231 0 0 Z " fill="#F1641E" transform="translate(187.8125,40.6875)"/>
<path d="M0 0 C1.99954746 -0.04254356 4.00041636 -0.04080783 6 0 C7 1 7 1 7.11352539 2.94946289 C7.10828857 3.7821167 7.10305176 4.61477051 7.09765625 5.47265625 C7.09443359 6.37177734 7.09121094 7.27089844 7.08789062 8.19726562 C7.07951172 9.14279297 7.07113281 10.08832031 7.0625 11.0625 C7.05798828 12.01189453 7.05347656 12.96128906 7.04882812 13.93945312 C7.0370011 16.29303065 7.02052025 18.64648477 7 21 C7.75249023 20.92322021 8.50498047 20.84644043 9.28027344 20.76733398 C15.22134924 20.16962377 21.03048842 19.90213915 27 20 C28.21563174 23.94652276 27.53534125 26.16164688 26 30 C25.505 30.495 25.505 30.495 25 31 C22.13311752 30.90903444 19.29699485 30.76232012 16.4375 30.5625 C15.63119141 30.51029297 14.82488281 30.45808594 13.99414062 30.40429688 C11.99578262 30.27422624 9.99784614 30.13770944 8 30 C7.92576202 36.17469663 7.87135587 42.34913261 7.83520508 48.52416992 C7.82013228 50.62415086 7.79967059 52.7241004 7.77368164 54.82397461 C7.73723246 57.84496824 7.72025841 60.86554511 7.70703125 63.88671875 C7.69154739 64.82335861 7.67606354 65.75999847 7.66011047 66.72502136 C7.65885894 71.58844441 7.68708972 75.12317953 11 79 C13.35768759 79.71481714 13.35768759 79.71481714 15.9375 79.5 C16.79214844 79.4896875 17.64679688 79.479375 18.52734375 79.46875 C21.39249777 78.92559284 22.75484548 77.80190513 25 76 C27.1875 76.125 27.1875 76.125 29 77 C29.33 77.99 29.66 78.98 30 80 C26.98635402 85.06701155 22.84246966 88.90917572 17.171875 90.6015625 C10.19109522 91.88220915 4.27638336 91.56892387 -2 88 C-6.50218345 84.41871771 -8.55569853 80.48728844 -10 75 C-10.37219297 71.59434013 -10.35189859 68.23506857 -10.29296875 64.8125 C-10.28872391 63.86938965 -10.28447906 62.9262793 -10.28010559 61.95458984 C-10.2634357 58.96942482 -10.22580575 55.98495782 -10.1875 53 C-10.17243804 50.96485356 -10.15875229 48.92969645 -10.14648438 46.89453125 C-10.11357055 41.9294223 -10.06186999 36.96482913 -10 32 C-10.61488281 31.96261719 -11.22976562 31.92523438 -11.86328125 31.88671875 C-12.67152344 31.82097656 -13.47976562 31.75523438 -14.3125 31.6875 C-15.11300781 31.62949219 -15.91351563 31.57148437 -16.73828125 31.51171875 C-19.36272334 30.91793306 -20.30820672 30.04219706 -22 28 C-21.4375 25.625 -21.4375 25.625 -20 23 C-17.68060793 22.2863409 -15.34476551 21.6252708 -13 21 C-7.27839099 17.2977824 -5.39482655 13.24783637 -3 7 C-2.42217448 5.64347399 -1.83941073 4.28903251 -1.25 2.9375 C-0.8375 1.968125 -0.425 0.99875 0 0 Z " fill="#F1641E" transform="translate(123,23)"/>
</svg>
